Simulation
nRows=32
nColumns=15
endheader
time  TH_x TH_y TH_z SC_y  SC_z  SC_x  AC_y  AC_z  AC_x  GH_y  GH_z  GH_yy  EL_x  PS_y
0.75  0.000000  0.000000  0.000000  -34.82792200065595  2.9590210125531144  26.698513872215937  51.553635743842726  -6.761814915738473  -12.890249161757811  22.97401762094527  18.749796509063177  -10.071915493512854  22.28086563301163  0.000000
0.765  0.000000  0.000000  0.000000  -34.46264446646065  2.727437096678648  25.68565424349463  51.641985199654236  -4.454747498322979  -12.412633355557368  20.78848503968494  22.322181132501974  -10.777424378577772  20.79982329134895  0.000000
0.78  0.000000  0.000000  0.000000  -34.103647153707726  2.801380537393231  24.827353078822732  52.0101375207435  -2.477054983003369  -11.811326503040014  19.5240100535567  25.310474394942606  -11.685810382432011  19.894284507609765  0.000000
0.7949999999999999  0.000000  0.000000  0.000000  -33.7409595789121  3.1644517001321772  24.07746448262207  52.21200930247134  -0.7386435403825374  -10.925572733106424  18.76279133188297  27.618288332377077  -12.521807911392903  19.289115361253344  0.000000
0.8099999999999999  0.000000  0.000000  0.000000  -33.56781356165549  3.6111250796908974  23.57270255029671  52.57253557389511  0.6428831658003992  -10.181118559368525  18.437921380197647  29.61854795717222  -13.503918631128359  18.892410957482326  0.000000
0.825  0.000000  0.000000  0.000000  -33.59488413692208  3.9641926335774893  23.25640735648011  52.92859219187223  1.8104420277071713  -9.480297352355814  18.377475432062607  31.340177292308802  -14.42766261682206  18.589979155495538  0.000000
0.84  0.000000  0.000000  0.000000  -33.84467630250484  4.255818853412747  23.147367418159966  53.17360498162363  2.681135219027122  -8.652901191493195  18.369203744113417  32.83392845050012  -15.258075662462495  18.38963053529466  0.000000
0.855  0.000000  0.000000  0.000000  -34.20719625921329  4.504095569877062  23.159801669815693  53.423595204476534  3.3413968507926968  -7.896410635035374  18.560876397707585  34.102611582598065  -16.10994115889279  18.21785555336205  0.000000
0.87  0.000000  0.000000  0.000000  -34.572134461339154  4.742368703361687  23.257573474785225  53.6542663221624  3.7996991060577203  -7.249176579863849  18.813796179368943  35.247514855617275  -16.941391119489634  18.06731081210448  0.000000
0.885  0.000000  0.000000  0.000000  -34.790707537260914  4.954966292259503  23.33820816041462  53.79979967494432  4.233552026328627  -6.758826953775796  19.123239133776146  36.19313418717593  -17.758011191337932  17.905836064543518  0.000000
0.8999999999999999  0.000000  0.000000  0.000000  -34.88607644185378  5.158344890412672  23.406869779273208  53.911721523438665  4.673084657630769  -6.383116244964056  19.36664720595816  37.01307454925684  -18.43060577422171  17.746222949621103  0.000000
0.9149999999999999  0.000000  0.000000  0.000000  -34.85425441443726  5.358916198223882  23.487621968381692  53.89546358244276  5.088917727288239  -6.09824925952928  19.62004379485268  37.66789780557854  -19.054584789549672  17.58280096100947  0.000000
0.9299999999999999  0.000000  0.000000  0.000000  -34.82051218110269  5.564644336329137  23.617252752929918  53.89754973840309  5.447391094765217  -5.871695128019108  19.847635333495862  38.25637212435077  -19.596897454157  17.416255014268682  0.000000
0.945  0.000000  0.000000  0.000000  -34.76936398286418  5.773148972647684  23.772439515461958  53.83781743691558  5.753159976157219  -5.676397352170611  20.11007543272177  38.72836871824504  -20.130145651326004  17.247824932928673  0.000000
0.96  0.000000  0.000000  0.000000  -34.76185486493576  5.981083232716726  23.964584858956503  53.81523645059745  6.010047580789709  -5.501247160695401  20.358463256244377  39.17030206166517  -20.61084889937074  17.088738535511812  0.000000
0.975  0.000000  0.000000  0.000000  -34.751161367194776  6.180595914483512  24.16766751666206  53.75067171328908  6.2309449946299535  -5.341886636676063  20.62674898417021  39.52377641876547  -21.083030919916467  16.931598598540543  0.000000
0.99  0.000000  0.000000  0.000000  -34.78375862716997  6.3808116446388965  24.397143771845077  53.72819386703669  6.419444253428324  -5.192620601131452  20.875652042606085  39.86380474064443  -21.512318461075523  16.78260477750987  0.000000
1.005  0.000000  0.000000  0.000000  -34.80688266088161  6.5691741241587875  24.625516540467114  53.66485028169087  6.585200935096065  -5.051305014941062  21.127759112784336  40.13338243421949  -21.92651962627337  16.63792179474042  0.000000
1.02  0.000000  0.000000  0.000000  -34.866983727105435  6.758254364634348  24.874635067785995  53.64500297727923  6.732235162129587  -4.919309703909317  21.355407371365374  40.401262049844384  -22.303258668980476  16.501612006132948  0.000000
1.035  0.000000  0.000000  0.000000  -34.910319818536934  6.93435881222232  25.114365224575852  53.58206328118388  6.8651403530836985  -4.791277352971176  21.575411763367093  40.612126084166526  -22.659954309339078  16.371571683150172  0.000000
1.05  0.000000  0.000000  0.000000  -34.985233731460625  7.111056170475228  25.371491667266113  53.56258618494009  6.98884031313948  -4.672862910347712  21.767940488769923  40.82994113942322  -22.982908509374397  16.25060605907121  0.000000
1.065  0.000000  0.000000  0.000000  -35.03788044165291  7.274608967555633  25.612919680531164  53.49763730133099  7.103427841351046  -4.5558811081591895  21.946781675359578  41.000918193894485  -23.282909462686543  16.137611215240295  0.000000
1.08  0.000000  0.000000  0.000000  -35.11844560340798  7.439019758934628  25.869348626829233  53.475728075368195  7.2147415082240505  -4.448655418729489  22.097636414796874  41.185059155248034  -23.552531870665476  16.034706566634863  0.000000
1.095  0.000000  0.000000  0.000000  -35.17280103875138  7.590182860911067  26.104878632248724  53.40650619949056  7.319445786168362  -4.3411415735261825  22.232234947852938  41.329905005023306  -23.79786265496871  15.941121119433436  0.000000
1.1099999999999999  0.000000  0.000000  0.000000  -35.252707507012936  7.742505536219982  26.35322246102088  53.38019527386086  7.42441017413954  -4.243466651173901  22.340477810412015  41.49210200850336  -24.01639488885344  15.858731136589268  0.000000
1.125  0.000000  0.000000  0.000000  -35.30364706131813  7.881212835932495  26.57607827572525  53.305615420035735  7.523601986255476  -4.144258623622527  22.432658569000722  41.62028075226876  -24.210995589819575  15.786490294963732  0.000000
1.14  0.000000  0.000000  0.000000  -35.37854531290957  8.021183052922261  26.81014720727882  53.27408593112362  7.624595438344022  -4.055179380636212  22.502078340621313  41.76814287186425  -24.382650410302606  15.726273484129575  0.000000
1.155  0.000000  0.000000  0.000000  -35.422193807953505  8.146900304157139  27.015000803704012  53.19427738511621  7.7196027104819365  -3.9650746143828615  22.558153176488347  41.88504990943128  -24.532640618289605  15.6776877793937  0.000000
1.17  0.000000  0.000000  0.000000  -35.48867438579434  8.273200064522282  27.229842055269973  53.158895800981206  7.816811645134787  -3.8853120814265134  22.595665361582956  42.022060452557206  -24.66284313526914  15.640998706084964  0.000000
1.185  0.000000  0.000000  0.000000  -35.52262290626079  8.384427960026704  27.411940060629593  53.076372743368026  7.907062378521034  -3.804782686145284  22.624839576955736  42.128963969701395  -24.775306915037135  15.616366486855888  0.000000
1.2  0.000000  0.000000  0.000000  -35.57940699184043  8.49556187492312  27.602660075091684  53.04054173803408  7.998834287754824  -3.734637090190335  22.641895567770057  42.25458549002868  -24.872514516647882  15.603564899295632  0.000000
1.2149999999999999  0.000000  0.000000  0.000000  -35.60300219478782  8.590204654256956  27.757583534247157  52.95975467431409  8.08192935672964  -3.6645508910264333  22.657654241167737  42.34892595429862  -24.95704781678203  15.60287233447428  0.000000
